<svg xmlns="http://www.w3.org/2000/svg" version="1.1" xmlns:xlink="http://www.w3.org/1999/xlink" xmlns:svgjs="http://svgjs.dev/svgjs" viewBox="0 0 800 800" opacity="1"><defs><filter id="bbburst-blur-1" x="-100%" y="-100%" width="400%" height="400%"><feGaussianBlur in="SourceGraphic" stdDeviation="1"></feGaussianBlur></filter><filter id="bbburst-blur-2" x="-100%" y="-100%" width="400%" height="400%"><feGaussianBlur in="SourceGraphic" stdDeviation="2"></feGaussianBlur></filter><filter id="bbburst-blur-3" x="-100%" y="-100%" width="400%" height="400%"><feGaussianBlur in="SourceGraphic" stdDeviation="4"></feGaussianBlur></filter><filter id="bbburst-blur-4" x="-100%" y="-100%" width="400%" height="400%"><feGaussianBlur in="SourceGraphic" stdDeviation="12"></feGaussianBlur></filter><symbol id="bbburst-shape-9" viewBox="0 0 182 172"><path d="M13.5809 69.845 91 13.5967l77.419 56.2483-29.571 91.012H43.1524L13.5809 69.845Z" stroke-width="22"></path></symbol><symbol id="bbburst-shape-10" viewBox="0 0 145 145"><circle cx="72.5" cy="72.5" r="61.5" fill="none" stroke-width="22"></circle></symbol><symbol id="bbburst-shape-11" viewBox="0 0 194 167"><path d="M10.398 161 97 11l86.603 150H10.397Z" stroke-width="11"></path></symbol></defs><use xlink:href="#bbburst-shape-9" width="17.60607985900651" opacity="0.7751343387505791" transform="matrix(0.9928388911719213,-0.11946102367094413,0.11946102367094413,0.9928388911719213,354.41000727385926,104.39372175344187)" fill="none" stroke="#fae7cd" filter="url(#bbburst-blur-1)"></use><use xlink:href="#bbburst-shape-11" width="44.0205541254783" opacity="-0.07843158928876859" transform="matrix(1.7439225652333734,-0.14571920419028886,0.14571920419028886,1.7439225652333734,644.0913791450168,-640.7992388659426)" fill="none" stroke="#857b6d" filter="url(#bbburst-blur-4)"></use><use xlink:href="#bbburst-shape-10" width="37.70870610358217" opacity="0.3455276929165889" transform="matrix(0.9805999441444876,-0.19601976824756193,0.19601976824756193,0.9805999441444876,11.911124938240278,55.55374284440899)" fill="none" stroke="#857b6d" filter="url(#bbburst-blur-2)"></use><use xlink:href="#bbburst-shape-10" width="37.98449859870609" opacity="0.3897390464364847" transform="matrix(0.9916744435916541,-0.1287703301509447,0.1287703301509447,0.9916744435916541,59.766855478685514,-44.95522279950313)" fill="none" stroke="#ada08e" filter="url(#bbburst-blur-2)"></use><use xlink:href="#bbburst-shape-11" width="34.464424202772534" opacity="0.41881070313874313" transform="matrix(0.9708482440580153,0.2396949874516952,-0.2396949874516952,0.9708482440580153,374.1830098796014,246.59979802150838)" fill="none" stroke="#ada08e" filter="url(#bbburst-blur-2)"></use><use xlink:href="#bbburst-shape-11" width="28.80177610862723" opacity="0.45961301792247" transform="matrix(0.9856308840749087,-0.16891347003040916,0.16891347003040916,0.9856308840749087,100.20685656285615,-99.99228573450938)" fill="none" stroke="#fae7cd" filter="url(#bbburst-blur-2)"></use><use xlink:href="#bbburst-shape-11" width="20.719817342725452" opacity="0.727858293194962" transform="matrix(0.952949332483035,0.3031296252762799,-0.3031296252762799,0.952949332483035,580.63865217593,116.47854925183486)" fill="none" stroke="#ada08e" filter="url(#bbburst-blur-1)"></use><use xlink:href="#bbburst-shape-11" width="30.01876069822918" opacity="0.27130436648396405" transform="matrix(0.969752781308326,-0.7887201931894263,0.7887201931894263,0.969752781308326,234.80316858105186,306.84954611400536)" fill="none" stroke="#857b6d" filter="url(#bbburst-blur-3)"></use><use xlink:href="#bbburst-shape-9" width="37.23651058614877" opacity="0.4064339016581221" transform="matrix(0.9735254576097416,0.228578615329044,-0.228578615329044,0.9735254576097416,537.8437938917095,-253.1152818064234)" fill="none" stroke="#d6c6b0" filter="url(#bbburst-blur-2)"></use><use xlink:href="#bbburst-shape-10" width="33.865686009867495" opacity="0.06535546999899333" transform="matrix(1.3505507127628114,-1.1128848872438974,1.1128848872438974,1.3505507127628114,284.28356675982,-351.10695941268864)" fill="none" stroke="#fae7cd" filter="url(#bbburst-blur-4)"></use><use xlink:href="#bbburst-shape-11" width="32.0093727842815" opacity="0.2739096026731883" transform="matrix(1.113558905096239,0.5678790054940097,-0.5678790054940097,1.113558905096239,332.8234801403743,-228.67924868704569)" fill="none" stroke="#857b6d" filter="url(#bbburst-blur-3)"></use><use xlink:href="#bbburst-shape-11" width="52.07804128307796" opacity="0.2273728885079681" transform="matrix(0.8950949293929407,0.8725279751246069,-0.8725279751246069,0.8950949293929407,694.4720627213169,-327.5817333657513)" fill="none" stroke="#857b6d" filter="url(#bbburst-blur-3)"></use><use xlink:href="#bbburst-shape-11" width="17.260770946099726" opacity="0.8037310527852886" transform="matrix(0.8636309274246778,0.5041246087978555,-0.5041246087978555,0.8636309274246778,682.2283259519701,58.41347995076234)" fill="none" stroke="#857b6d"></use><use xlink:href="#bbburst-shape-9" width="18.538962745825692" opacity="0.6675984723399466" transform="matrix(0.8011766674341291,-0.5984278967086536,0.5984278967086536,0.8011766674341291,231.5548188321443,-42.395350150961804)" fill="none" stroke="#ada08e" filter="url(#bbburst-blur-1)"></use><use xlink:href="#bbburst-shape-9" width="48.849432503583834" opacity="0.176847182641925" transform="matrix(1.027654643553842,0.7116360963176516,-0.7116360963176516,1.027654643553842,924.165221389974,230.66975872791477)" fill="none" stroke="#857b6d" filter="url(#bbburst-blur-3)"></use><use xlink:href="#bbburst-shape-9" width="11.816208388415994" opacity="0.8765744330215004" transform="matrix(0.7311022635370646,0.6822678947825264,-0.6822678947825264,0.7311022635370646,615.0223515239238,88.98604461787869)" fill="none" stroke="#5c554b"></use><use xlink:href="#bbburst-shape-10" width="26.84299852138064" opacity="0.18959246750415581" transform="matrix(1.246619102435298,-0.09187389968544929,0.09187389968544929,1.246619102435298,404.7944620392575,262.58258122093787)" fill="none" stroke="#ada08e" filter="url(#bbburst-blur-3)"></use><use xlink:href="#bbburst-shape-10" width="26.550670486905197" opacity="0.606951930961067" transform="matrix(0.7803809898998708,-0.625304334386783,0.625304334386783,0.7803809898998708,111.75015544422075,-78.5295278165307)" fill="none" stroke="#d6c6b0" filter="url(#bbburst-blur-1)"></use><use xlink:href="#bbburst-shape-9" width="25.41858859460622" opacity="0.43988449491826076" transform="matrix(0.8264337526785484,-0.5630339709410543,0.5630339709410543,0.8264337526785484,285.7581901888951,297.2358964311426)" fill="none" stroke="#fae7cd" filter="url(#bbburst-blur-2)"></use><use xlink:href="#bbburst-shape-9" width="18.307327282558994" opacity="0.7508516434032768" transform="matrix(0.8193389211950135,0.5733094558918346,-0.5733094558918346,0.8193389211950135,606.7514287714747,-44.1739466185212)" fill="none" stroke="#d6c6b0" filter="url(#bbburst-blur-1)"></use><use xlink:href="#bbburst-shape-10" width="35.66930631367279" opacity="0.17051975884601855" transform="matrix(1.0369082477660911,0.6980840104992052,-0.6980840104992052,1.0369082477660911,294.16018059147177,43.11657998872579)" fill="none" stroke="#5c554b" filter="url(#bbburst-blur-3)"></use><use xlink:href="#bbburst-shape-9" width="34.61505784641541" opacity="0.16473772214960958" transform="matrix(1.2437327173765707,0.12501570992115857,-0.12501570992115857,1.2437327173765707,789.8906511733625,3.39918086350616)" fill="none" stroke="#ada08e" filter="url(#bbburst-blur-3)"></use><use xlink:href="#bbburst-shape-11" width="40.105770038595644" opacity="0.3932149399728011" transform="matrix(0.8616759178670993,0.5074589762413234,-0.5074589762413234,0.8616759178670993,789.3645172224701,226.88248668389082)" fill="none" stroke="#fae7cd" filter="url(#bbburst-blur-2)"></use><use xlink:href="#bbburst-shape-10" width="14.820602246341414" opacity="0.8706702918913108" transform="matrix(0.7167458525731583,0.6973344841746868,-0.6973344841746868,0.7167458525731583,619.4313086357049,129.35602441258254)" fill="none" stroke="#857b6d"></use><use xlink:href="#bbburst-shape-10" width="26.65158273982144" opacity="0.5622849509453063" transform="matrix(0.9996256628755279,0.027359351612591825,-0.027359351612591825,0.9996256628755279,201.15232630955092,-14.256984729022236)" fill="none" stroke="#fae7cd" filter="url(#bbburst-blur-1)"></use><use xlink:href="#bbburst-shape-10" width="11.84989858111564" opacity="0.8798456856270215" transform="matrix(0.9493290237171166,0.3142839555693327,-0.3142839555693327,0.9493290237171166,571.0630162241409,36.437896677845515)" fill="none" stroke="#ada08e"></use><use xlink:href="#bbburst-shape-11" width="29.80624161480011" opacity="0.4408860119226867" transform="matrix(0.9325008435067338,-0.3611677959885544,0.3611677959885544,0.9325008435067338,222.5965311932444,-218.8663671644002)" fill="none" stroke="#fae7cd" filter="url(#bbburst-blur-2)"></use><use xlink:href="#bbburst-shape-10" width="38.31540452208205" opacity="0.35483560761004085" transform="matrix(0.8550243532747792,-0.5185878472419553,0.5185878472419553,0.8550243532747792,462.38499280746015,19.167397375000007)" fill="none" stroke="#fae7cd" filter="url(#bbburst-blur-2)"></use><use xlink:href="#bbburst-shape-9" width="26.538725479283165" opacity="0.5850437822321799" transform="matrix(0.8197331593956111,0.5727456218839998,-0.5727456218839998,0.8197331593956111,655.650239261181,-118.60136724690918)" fill="none" stroke="#fae7cd" filter="url(#bbburst-blur-1)"></use><use xlink:href="#bbburst-shape-11" width="11.437812402324314" opacity="0.8551813326317781" transform="matrix(0.9484805948182345,0.3168352272921177,-0.3168352272921177,0.9484805948182345,514.5359923080566,83.46652056234484)" fill="none" stroke="#857b6d"></use><use xlink:href="#bbburst-shape-9" width="25.30784037496495" opacity="0.5643730318014423" transform="matrix(0.9802620957002999,0.19770236147617518,-0.19770236147617518,0.9802620957002999,302.6060982389292,112.45650048855742)" fill="none" stroke="#ada08e" filter="url(#bbburst-blur-1)"></use><use xlink:href="#bbburst-shape-11" width="17.662079707863477" opacity="0.7885222661839715" transform="matrix(0.9565104427546322,0.29169808518627194,-0.29169808518627194,0.9565104427546322,462.7065690125524,-68.93072985465034)" fill="none" stroke="#fae7cd"></use><use xlink:href="#bbburst-shape-9" width="28.358918475310574" opacity="0.5246255753212186" transform="matrix(0.803493125601862,0.5953140323480964,-0.5953140323480964,0.803493125601862,737.2883034886657,-113.19602975945969)" fill="none" stroke="#5c554b" filter="url(#bbburst-blur-2)"></use><use xlink:href="#bbburst-shape-9" width="44.654032651379445" opacity="-0.09016697694394304" transform="matrix(1.5850014829314825,0.7418020619444257,-0.7418020619444257,1.5850014829314825,317.7534666732316,98.90858748893663)" fill="none" stroke="#fae7cd" filter="url(#bbburst-blur-4)"></use><use xlink:href="#bbburst-shape-9" width="15.703901472910285" opacity="0.7319968638097503" transform="matrix(0.9875912967718824,0.15704595041080077,-0.15704595041080077,0.9875912967718824,362.9726336481882,81.47724558397158)" fill="none" stroke="#857b6d" filter="url(#bbburst-blur-1)"></use><use xlink:href="#bbburst-shape-10" width="27.04210652177013" opacity="0.6306351681465212" transform="matrix(0.8568026725214223,-0.5156444321042829,0.5156444321042829,0.8568026725214223,314.09376240524625,-36.842714475151695)" fill="none" stroke="#d6c6b0" filter="url(#bbburst-blur-1)"></use><use xlink:href="#bbburst-shape-10" width="14.829032645699812" opacity="0.8367636373478261" transform="matrix(0.7384938352302458,0.6742602281960005,-0.6742602281960005,0.7384938352302458,676.995385067293,27.264759651519682)" fill="none" stroke="#d6c6b0"></use><use xlink:href="#bbburst-shape-10" width="26.790611584796775" opacity="0.559497883607819" transform="matrix(0.9623241520632352,-0.2719048112038022,0.2719048112038022,0.9623241520632352,157.6492968061488,-138.5308014609924)" fill="none" stroke="#fae7cd" filter="url(#bbburst-blur-1)"></use><use xlink:href="#bbburst-shape-10" width="18.175533192145338" opacity="0.7441682803270094" transform="matrix(0.9621930173023155,-0.27236849570878385,0.27236849570878385,0.9621930173023155,240.61430015449264,124.90689961367525)" fill="none" stroke="#fae7cd" filter="url(#bbburst-blur-1)"></use><use xlink:href="#bbburst-shape-11" width="16.864715125870383" opacity="0.7032903773138577" transform="matrix(0.9949362459169073,0.10050804226912025,-0.10050804226912025,0.9949362459169073,338.81043249936295,-94.81802163497366)" fill="none" stroke="#ada08e" filter="url(#bbburst-blur-1)"></use><use xlink:href="#bbburst-shape-11" width="14.242734671576786" opacity="0.7852384506330801" transform="matrix(0.9774893628526222,0.21098470444554637,-0.21098470444554637,0.9774893628526222,387.1433593774855,41.682610094152835)" fill="none" stroke="#ada08e"></use><use xlink:href="#bbburst-shape-9" width="26.954268070648965" opacity="0.623903737976061" transform="matrix(0.9921833337248702,0.12478875060919084,-0.12478875060919084,0.9921833337248702,599.8590811041443,-43.21904582961923)" fill="none" stroke="#fae7cd" filter="url(#bbburst-blur-1)"></use><use xlink:href="#bbburst-shape-9" width="19.316643820950212" opacity="0.7164119231742658" transform="matrix(0.9998518449978785,0.01721301990756705,-0.01721301990756705,0.9998518449978785,420.45310654410366,-125.72107158729466)" fill="none" stroke="#5c554b" filter="url(#bbburst-blur-1)"></use><use xlink:href="#bbburst-shape-9" width="44.71536441655407" opacity="0.3797751639899525" transform="matrix(0.8646920744244395,0.5023023157696563,-0.5023023157696563,0.8646920744244395,391.1137792949834,-161.2284770316119)" fill="none" stroke="#fae7cd" filter="url(#bbburst-blur-2)"></use><use xlink:href="#bbburst-shape-11" width="43.47431943436226" opacity="0.30583971521962006" transform="matrix(1.1780167486713997,-0.4180628419863024,0.4180628419863024,1.1780167486713997,476.76079481733143,-220.16343834169678)" fill="none" stroke="#fae7cd" filter="url(#bbburst-blur-3)"></use><use xlink:href="#bbburst-shape-11" width="33.44505057885015" opacity="0.25934426746353323" transform="matrix(1.2244393877232582,0.25149191993360875,-0.25149191993360875,1.2244393877232582,621.9092335035778,-396.19175260349436)" fill="none" stroke="#fae7cd" filter="url(#bbburst-blur-3)"></use><use xlink:href="#bbburst-shape-9" width="13.08386201284511" opacity="0.804377382446779" transform="matrix(0.7978066684979919,-0.6029133600279026,0.6029133600279026,0.7978066684979919,66.29099253817051,73.21707890424437)" fill="none" stroke="#ada08e"></use><use xlink:href="#bbburst-shape-10" width="27.53664972391869" opacity="0.3151321338402867" transform="matrix(0.9209588692041477,-0.845183270796469,0.845183270796469,0.9209588692041477,-72.06368706290283,-240.05796492117867)" fill="none" stroke="#857b6d" filter="url(#bbburst-blur-3)"></use><use xlink:href="#bbburst-shape-11" width="44.95774721718867" opacity="0.05100566297760212" transform="matrix(1.2503773588021432,-1.2243596124484735,1.2243596124484735,1.2503773588021432,-477.29209315137143,158.3383842047512)" fill="none" stroke="#fae7cd" filter="url(#bbburst-blur-4)"></use><use xlink:href="#bbburst-shape-10" width="15.38133292490687" opacity="0.8364244834551726" transform="matrix(0.9674058202468656,0.25323107817266255,-0.25323107817266255,0.9674058202468656,533.4839160767415,73.11942177349192)" fill="none" stroke="#857b6d"></use><use xlink:href="#bbburst-shape-9" width="37.45114002967696" opacity="0.407820535752191" transform="matrix(0.8943644759937655,-0.44733900353132333,0.44733900353132333,0.8943644759937655,-33.43176395994024,170.99213114318593)" fill="none" stroke="#fae7cd" filter="url(#bbburst-blur-2)"></use><use xlink:href="#bbburst-shape-11" width="23.477837203566356" opacity="0.167855678789949" transform="matrix(1.1775349755124462,0.4194179078734035,-0.4194179078734035,1.1775349755124462,472.83205760881765,289.25269931407144)" fill="none" stroke="#ada08e" filter="url(#bbburst-blur-3)"></use><use xlink:href="#bbburst-shape-11" width="11.417078149133207" opacity="0.9356606230236476" transform="matrix(0.8140339641340827,-0.5808172735345868,0.5808172735345868,0.8140339641340827,134.07565386225238,79.83393568565742)" fill="none" stroke="#ada08e"></use><use xlink:href="#bbburst-shape-11" width="39.719886245211484" opacity="0.3707663991235738" transform="matrix(0.9999962505176221,-0.002738421205228221,0.002738421205228221,0.9999962505176221,558.741435483273,-219.2833494471106)" fill="none" stroke="#ada08e" filter="url(#bbburst-blur-2)"></use><use xlink:href="#bbburst-shape-11" width="24.284949528251214" opacity="0.6309625939054024" transform="matrix(0.9005303194753688,0.4347932194797778,-0.4347932194797778,0.9005303194753688,405.2218042840788,-17.22006741790517)" fill="none" stroke="#5c554b" filter="url(#bbburst-blur-1)"></use><use xlink:href="#bbburst-shape-11" width="19.02759867492104" opacity="0.6398862553933681" transform="matrix(0.8742260936256225,0.48551903899237997,-0.48551903899237997,0.8742260936256225,483.6586249854779,171.11402997443633)" fill="none" stroke="#857b6d" filter="url(#bbburst-blur-1)"></use><use xlink:href="#bbburst-shape-10" width="30.28580282051352" opacity="0.15318754186073646" transform="matrix(0.9400493892251115,-0.8238975335668235,0.8238975335668235,0.9400493892251115,-300.2877654884568,-98.1661942544851)" fill="none" stroke="#d6c6b0" filter="url(#bbburst-blur-3)"></use><use xlink:href="#bbburst-shape-11" width="14.856881246337503" opacity="0.7367013079276094" transform="matrix(0.8531164988289791,-0.5217204609997431,0.5217204609997431,0.8531164988289791,294.9588285918404,18.64763530114135)" fill="none" stroke="#ada08e" filter="url(#bbburst-blur-1)"></use><use xlink:href="#bbburst-shape-10" width="41.87436326422274" opacity="0.12250424251555547" transform="matrix(1.0162237595111836,-0.7278662449962604,0.7278662449962604,1.0162237595111836,-186.63782616423913,292.88233350322736)" fill="none" stroke="#ada08e" filter="url(#bbburst-blur-3)"></use><use xlink:href="#bbburst-shape-11" width="23.084847469112304" opacity="0.6033645734106073" transform="matrix(0.999970420002244,0.007691496638222639,-0.007691496638222639,0.999970420002244,566.333113729562,35.72945382874332)" fill="none" stroke="#d6c6b0" filter="url(#bbburst-blur-1)"></use><use xlink:href="#bbburst-shape-11" width="33.9728690702816" opacity="0.45702979453919146" transform="matrix(0.9523193618427969,0.3051029876276668,-0.3051029876276668,0.9523193618427969,343.17007922376564,195.64668792947498)" fill="none" stroke="#5c554b" filter="url(#bbburst-blur-2)"></use><use xlink:href="#bbburst-shape-11" width="35.86407381143748" opacity="0.0705412633847946" transform="matrix(1.328797987833646,1.1387694707574723,-1.1387694707574723,1.328797987833646,622.2623590885794,209.19489801813359)" fill="none" stroke="#5c554b" filter="url(#bbburst-blur-4)"></use><use xlink:href="#bbburst-shape-10" width="40.699408891168126" opacity="0.17946762221935086" transform="matrix(1.0171613226143446,-0.7265554650385869,0.7265554650385869,1.0171613226143446,344.79002790988824,-258.05855532889774)" fill="none" stroke="#fae7cd" filter="url(#bbburst-blur-3)"></use><use xlink:href="#bbburst-shape-11" width="19.015366817530655" opacity="0.7103081363016792" transform="matrix(0.7580356530767512,-0.6522131159862573,0.6522131159862573,0.7580356530767512,1.402739224493473,104.8636308398697)" fill="none" stroke="#857b6d" filter="url(#bbburst-blur-1)"></use><use xlink:href="#bbburst-shape-10" width="41.44554148902479" opacity="0.3777571778526859" transform="matrix(0.84967296934503,0.5273100085949439,-0.5273100085949439,0.84967296934503,868.1086453906725,103.00347322984328)" fill="none" stroke="#857b6d" filter="url(#bbburst-blur-2)"></use><use xlink:href="#bbburst-shape-11" width="29.408646316449495" opacity="0.2949664099539977" transform="matrix(1.1630743960945438,-0.45799339422017,0.45799339422017,1.1630743960945438,-42.40958300751225,146.3050144917823)" fill="none" stroke="#fae7cd" filter="url(#bbburst-blur-3)"></use><use xlink:href="#bbburst-shape-9" width="30.767520907139364" opacity="0.4831146444423824" transform="matrix(0.9869890387703966,-0.16078755345824708,0.16078755345824708,0.9869890387703966,538.3201618486113,-74.02819730362125)" fill="none" stroke="#fae7cd" filter="url(#bbburst-blur-2)"></use><use xlink:href="#bbburst-shape-9" width="30.646881736583673" opacity="0.5718553472725567" transform="matrix(0.9188150541022664,-0.394688353457572,0.394688353457572,0.9188150541022664,347.78909398846275,189.20201004039671)" fill="none" stroke="#fae7cd" filter="url(#bbburst-blur-1)"></use><use xlink:href="#bbburst-shape-11" width="32.3107104613579" opacity="0.0698756238243371" transform="matrix(1.4186014358433814,-1.024729216048365,1.024729216048365,1.4186014358433814,181.58331785896343,-510.7000063918235)" fill="none" stroke="#857b6d" filter="url(#bbburst-blur-4)"></use><use xlink:href="#bbburst-shape-11" width="26.69433194584119" opacity="0.4801146222435573" transform="matrix(0.9980910287275139,0.06176000626338321,-0.06176000626338321,0.9980910287275139,317.6913592546684,-214.76332295860456)" fill="none" stroke="#ada08e" filter="url(#bbburst-blur-2)"></use><use xlink:href="#bbburst-shape-9" width="16.97296795711599" opacity="0.6735235643445945" transform="matrix(0.9003005368315308,-0.435268817377098,0.435268817377098,0.9003005368315308,259.1423378245672,184.56551892069535)" fill="none" stroke="#ada08e" filter="url(#bbburst-blur-1)"></use><use xlink:href="#bbburst-shape-10" width="11.88848977264792" opacity="0.833213761172313" transform="matrix(0.7613266176858031,0.648368553527309,-0.648368553527309,0.7613266176858031,725.5005407213805,66.36445575611845)" fill="none" stroke="#ada08e"></use><use xlink:href="#bbburst-shape-9" width="13.124820941395829" opacity="0.8548390207022709" transform="matrix(0.9329545637286946,-0.3599941416437235,0.3599941416437235,0.9329545637286946,293.3779331430782,-19.606897160341703)" fill="none" stroke="#ada08e"></use><use xlink:href="#bbburst-shape-9" width="13.462641769383714" opacity="0.9560094554175043" transform="matrix(0.8614544074987119,-0.5078349178631213,0.5078349178631213,0.8614544074987119,209.73912173753513,65.20144508141942)" fill="none" stroke="#857b6d"></use><use xlink:href="#bbburst-shape-9" width="24.949386055741456" opacity="0.3648020137610557" transform="matrix(0.9301942446699091,-0.36706766022489273,0.36706766022489273,0.9301942446699091,297.76500025936355,312.5931281972853)" fill="none" stroke="#857b6d" filter="url(#bbburst-blur-2)"></use><use xlink:href="#bbburst-shape-11" width="30.94237038068429" opacity="0.5477728644340387" transform="matrix(0.9999780024517054,-0.006632843485046085,0.006632843485046085,0.9999780024517054,428.9191921599935,197.70217617265337)" fill="none" stroke="#5c554b" filter="url(#bbburst-blur-2)"></use><use xlink:href="#bbburst-shape-10" width="52.871527537604024" opacity="0.15398488862777238" transform="matrix(1.238366247283525,-0.1701441670728659,0.1701441670728659,1.238366247283525,62.75689986370652,-389.227349885746)" fill="none" stroke="#5c554b" filter="url(#bbburst-blur-3)"></use><use xlink:href="#bbburst-shape-11" width="19.27968338688766" opacity="0.5803771432571132" transform="matrix(0.9829184067383961,0.18404185853998745,-0.18404185853998745,0.9829184067383961,311.16267544849916,-105.82179839574752)" fill="none" stroke="#fae7cd" filter="url(#bbburst-blur-1)"></use><use xlink:href="#bbburst-shape-9" width="27.818483376290775" opacity="0.26611203495893565" transform="matrix(1.2493724671286397,-0.039603514754321494,0.039603514754321494,1.2493724671286397,199.7556397126798,185.47086487681958)" fill="none" stroke="#fae7cd" filter="url(#bbburst-blur-3)"></use><use xlink:href="#bbburst-shape-9" width="11.826877954334815" opacity="0.9103231994631181" transform="matrix(0.9709957746526132,0.2390966449090649,-0.2390966449090649,0.9709957746526132,527.1592806068969,-5.427075613305703)" fill="none" stroke="#ada08e"></use><use xlink:href="#bbburst-shape-9" width="13.991597925367872" opacity="0.8307273131740206" transform="matrix(0.9794055423692534,0.20190290630991076,-0.20190290630991076,0.9794055423692534,426.9280273312023,66.6765689581656)" fill="none" stroke="#ada08e"></use><use xlink:href="#bbburst-shape-9" width="28.50640070766063" opacity="0.12015066884993741" transform="matrix(1.2360085522430557,-0.186501632116251,0.186501632116251,1.2360085522430557,152.2627128719824,-456.10781883328656)" fill="none" stroke="#857b6d" filter="url(#bbburst-blur-3)"></use><use xlink:href="#bbburst-shape-10" width="39.56834571061874" opacity="0.20112335465209863" transform="matrix(1.231360455154456,-0.21506145512808877,0.21506145512808877,1.231360455154456,-38.39521614399223,58.837253067517)" fill="none" stroke="#ada08e" filter="url(#bbburst-blur-3)"></use><use xlink:href="#bbburst-shape-11" width="37.39204491466793" opacity="0.1652178146162977" transform="matrix(1.1851449548965163,0.3974058830507351,-0.3974058830507351,1.1851449548965163,893.908265749372,-199.2268486953824)" fill="none" stroke="#5c554b" filter="url(#bbburst-blur-3)"></use><use xlink:href="#bbburst-shape-10" width="36.175791668699105" opacity="0.05323559435236913" transform="matrix(1.654358969456612,0.57061055035677,-0.57061055035677,1.654358969456612,956.6465173433617,-41.596027573606534)" fill="none" stroke="#5c554b" filter="url(#bbburst-blur-4)"></use><use xlink:href="#bbburst-shape-10" width="16.16282649375461" opacity="0.7796692719529321" transform="matrix(0.9851434212240854,-0.17173362984256862,0.17173362984256862,0.9851434212240854,370.49430961764756,-79.89023163367432)" fill="none" stroke="#d6c6b0"></use><use xlink:href="#bbburst-shape-11" width="24.99425544286921" opacity="0.6547512843876868" transform="matrix(0.978570799023693,0.20591063910864565,-0.20591063910864565,0.978570799023693,594.4622926175571,98.93831006586692)" fill="none" stroke="#ada08e" filter="url(#bbburst-blur-1)"></use><use xlink:href="#bbburst-shape-9" width="22.879542406770447" opacity="0.6544273867075907" transform="matrix(0.7439999136819833,-0.6681797126830487,0.6681797126830487,0.7439999136819833,-22.976843058668976,160.3964430456669)" fill="none" stroke="#fae7cd" filter="url(#bbburst-blur-1)"></use><use xlink:href="#bbburst-shape-9" width="18.626271858327094" opacity="0.6703511466516453" transform="matrix(0.7760621469494057,0.6306564390159503,-0.6306564390159503,0.7760621469494057,582.9864544179022,-51.100895007435724)" fill="none" stroke="#ada08e" filter="url(#bbburst-blur-1)"></use><use xlink:href="#bbburst-shape-9" width="28.917313877386814" opacity="0.5121532526325295" transform="matrix(0.8506633332227463,-0.5257108459128143,0.5257108459128143,0.8506633332227463,396.83521391982765,65.12013425837728)" fill="none" stroke="#5c554b" filter="url(#bbburst-blur-2)"></use><use xlink:href="#bbburst-shape-10" width="15.598390848043488" opacity="0.7054106549313796" transform="matrix(0.9621359273297531,0.2725700961978701,-0.2725700961978701,0.9621359273297531,625.8669171466046,58.98075469930876)" fill="none" stroke="#857b6d" filter="url(#bbburst-blur-1)"></use><use xlink:href="#bbburst-shape-11" width="13.156248606213497" opacity="0.9128951997089879" transform="matrix(0.8839515126263148,-0.46757857449379564,0.46757857449379564,0.8839515126263148,224.0950781408611,84.65422828477728)" fill="none" stroke="#857b6d"></use><use xlink:href="#bbburst-shape-11" width="39.898334286436146" opacity="-0.0763148275528458" transform="matrix(1.384425219463852,-1.070451685837556,1.070451685837556,1.384425219463852,-385.4325902226845,-488.50165310520856)" fill="none" stroke="#ada08e" filter="url(#bbburst-blur-4)"></use><use xlink:href="#bbburst-shape-10" width="17.23583891375117" opacity="0.7100992022699044" transform="matrix(0.9996165327905027,-0.02769092580420473,0.02769092580420473,0.9996165327905027,510.7431753593221,-1.9607757040776619)" fill="none" stroke="#d6c6b0" filter="url(#bbburst-blur-1)"></use><use xlink:href="#bbburst-shape-11" width="11.38735058332217" opacity="0.8623637178213996" transform="matrix(0.7419847981083001,-0.6704167057705119,0.6704167057705119,0.7419847981083001,110.25735671064984,47.42952406033231)" fill="none" stroke="#ada08e"></use><use xlink:href="#bbburst-shape-9" width="41.34072046877646" opacity="-0.07116795205118853" transform="matrix(1.5392911451001536,-0.8325159281456765,0.8325159281456765,1.5392911451001536,368.34170090340535,149.19312811218333)" fill="none" stroke="#d6c6b0" filter="url(#bbburst-blur-4)"></use><use xlink:href="#bbburst-shape-11" width="17.912199246253273" opacity="0.789440739619308" transform="matrix(0.9763657828506098,-0.216124635519683,0.216124635519683,0.9763657828506098,384.2705429716223,62.693451215959044)" fill="none" stroke="#5c554b"></use><use xlink:href="#bbburst-shape-11" width="13.738630187899808" opacity="0.9222954983300192" transform="matrix(0.9989507254782386,-0.045797904608189076,0.045797904608189076,0.9989507254782386,357.65119120637644,31.024581841319275)" fill="none" stroke="#857b6d"></use><use xlink:href="#bbburst-shape-9" width="45.88409843719656" opacity="0.20814177180992466" transform="matrix(0.9615326173557931,0.7987208684896858,-0.7987208684896858,0.9615326173557931,342.99028549202217,-37.49295341190248)" fill="none" stroke="#ada08e" filter="url(#bbburst-blur-3)"></use><use xlink:href="#bbburst-shape-10" width="15.497058608409379" opacity="0.754304714353204" transform="matrix(0.8023955490663626,0.5967925794097063,-0.5967925794097063,0.8023955490663626,715.6410933541235,1.5364553463289212)" fill="none" stroke="#d6c6b0" filter="url(#bbburst-blur-1)"></use><use xlink:href="#bbburst-shape-11" width="28.352528213102715" opacity="0.48201742449568885" transform="matrix(0.8734503249800659,-0.4869132672172913,0.4869132672172913,0.8734503249800659,172.98128085959297,289.462097509775)" fill="none" stroke="#ada08e" filter="url(#bbburst-blur-2)"></use><use xlink:href="#bbburst-shape-10" width="37.075778008794536" opacity="0.20333182008009365" transform="matrix(1.2498445729249972,-0.01971150755095021,0.01971150755095021,1.2498445729249972,727.4082124852223,-104.81750614086332)" fill="none" stroke="#5c554b" filter="url(#bbburst-blur-3)"></use><use xlink:href="#bbburst-shape-11" width="14.646177957516615" opacity="0.8236000916670534" transform="matrix(0.9949530994388638,-0.10034106794826556,0.10034106794826556,0.9949530994388638,290.58854747145614,-47.041710986400574)" fill="none" stroke="#ada08e"></use><use xlink:href="#bbburst-shape-11" width="32.87619394767192" opacity="0.18418494490175819" transform="matrix(1.2406406872331859,0.15267837168888088,-0.15267837168888088,1.2406406872331859,513.5316997534749,-459.11995216199733)" fill="none" stroke="#857b6d" filter="url(#bbburst-blur-3)"></use><use xlink:href="#bbburst-shape-9" width="11.687012242173186" opacity="0.9244762374936596" transform="matrix(0.8208831024520382,0.5710962546792935,-0.5710962546792935,0.8208831024520382,632.8296389327027,35.51213271012841)" fill="none" stroke="#5c554b"></use><use xlink:href="#bbburst-shape-9" width="24.49319969315576" opacity="0.4871584433215431" transform="matrix(0.9863545389221446,0.16463512246080264,-0.16463512246080264,0.9863545389221446,635.7599157537994,-138.67169523519635)" fill="none" stroke="#ada08e" filter="url(#bbburst-blur-2)"></use><use xlink:href="#bbburst-shape-9" width="32.317633324808654" opacity="0.3184680438721105" transform="matrix(1.102815278759502,-0.5884712915126801,0.5884712915126801,1.102815278759502,99.73432429597528,271.2202789025143)" fill="none" stroke="#d6c6b0" filter="url(#bbburst-blur-3)"></use><use xlink:href="#bbburst-shape-10" width="9.634499032510043" opacity="0.9882581610621702" transform="matrix(0.999765061595367,-0.02167536881374456,0.02167536881374456,0.999765061595367,382.47941659701087,-3.213809467702447)" fill="none" stroke="#857b6d"></use><use xlink:href="#bbburst-shape-10" width="41.273547024853094" opacity="0.046382602367813885" transform="matrix(1.3921538602078949,1.060380888882979,-1.060380888882979,1.3921538602078949,446.88134180834385,-429.08318743486313)" fill="none" stroke="#fae7cd" filter="url(#bbburst-blur-4)"></use><use xlink:href="#bbburst-shape-11" width="17.876433139325915" opacity="0.7348940960462299" transform="matrix(0.7609868304398831,0.6487673264715638,-0.6487673264715638,0.7609868304398831,545.5465073592325,37.50708562505986)" fill="none" stroke="#857b6d" filter="url(#bbburst-blur-1)"></use><use xlink:href="#bbburst-shape-11" width="23.081644768098865" opacity="0.5674735327318037" transform="matrix(0.9257944724459475,0.3780272408022069,-0.3780272408022069,0.9257944724459475,460.2733905542617,202.31482380813327)" fill="none" stroke="#ada08e" filter="url(#bbburst-blur-1)"></use><use xlink:href="#bbburst-shape-10" width="31.435937786506862" opacity="0.5073247964459939" transform="matrix(0.9950378086850064,-0.0994975340766831,0.0994975340766831,0.9950378086850064,542.035582510524,104.32771637684243)" fill="none" stroke="#fae7cd" filter="url(#bbburst-blur-2)"></use><use xlink:href="#bbburst-shape-11" width="36.71353678087702" opacity="0.08923582505800642" transform="matrix(1.6045647611628486,-0.698478294032399,0.698478294032399,1.6045647611628486,286.8833341422081,130.14311693272646)" fill="none" stroke="#ada08e" filter="url(#bbburst-blur-4)"></use><use xlink:href="#bbburst-shape-11" width="13.710924194930737" opacity="0.9128826160349688" transform="matrix(0.9767537868524709,-0.214364269106019,0.214364269106019,0.9767537868524709,282.0643338597123,-19.218172056003766)" fill="none" stroke="#857b6d"></use><use xlink:href="#bbburst-shape-11" width="24.200772344884868" opacity="0.6436116678800367" transform="matrix(0.8784957417043431,0.477750177192365,-0.477750177192365,0.8784957417043431,560.5744296575797,201.6639546282738)" fill="none" stroke="#857b6d" filter="url(#bbburst-blur-1)"></use><use xlink:href="#bbburst-shape-9" width="22.56774557853654" opacity="0.5065437618897475" transform="matrix(0.7520150500726637,-0.6591459356350529,0.6591459356350529,0.7520150500726637,-89.71962242913935,151.38408631785143)" fill="none" stroke="#5c554b" filter="url(#bbburst-blur-2)"></use><use xlink:href="#bbburst-shape-11" width="32.63670099644184" opacity="0.27959758492455067" transform="matrix(1.201052502310645,0.34637102461571156,-0.34637102461571156,1.201052502310645,806.803077553868,62.81168307709157)" fill="none" stroke="#fae7cd" filter="url(#bbburst-blur-3)"></use></svg>